<svg width="152" height="290" viewBox="0 0 152 290" fill="none" xmlns="http://www.w3.org/2000/svg">
<path fill-rule="evenodd" clip-rule="evenodd" d="M20.6767 0.330292H131.199C141.799 0.330292 150.392 8.58679 150.392 18.7717V271.228C150.392 281.413 141.799 289.67 131.199 289.67H20.6767C10.0769 289.67 1.48413 281.413 1.48413 271.228V18.7717C1.48413 8.58679 10.0769 0.330292 20.6767 0.330292Z" fill="#213648"/>
<path opacity="0.595562" fill-rule="evenodd" clip-rule="evenodd" d="M131.627 0H20.1834C14.9805 0.318394 10.182 2.70102 5.78799 7.14789C8.61382 4.67242 13.654 1.35985 20.3176 1.35985C20.3176 1.35985 127.05 1.35985 131.492 1.35985C138.156 1.35985 143.196 4.67242 146.022 7.14789C141.628 2.70102 136.83 0.318394 131.627 0Z" fill="url(#paint0_linear_2_235)" fill-opacity="0.65"/>
<path opacity="0.75" fill-rule="evenodd" clip-rule="evenodd" d="M147.376 268.349V20.2894C147.376 13.6338 144.939 11.1734 143.485 9.59348C142.031 8.0136 141.969 7.20779 144.058 8.40063C146.147 9.59348 150.326 13.0677 150.326 20.2894V268.349C150.326 275.571 146.147 279.045 144.058 280.238C141.969 281.431 142.031 280.625 143.485 279.045C144.939 277.465 147.376 275.005 147.376 268.349Z" fill="url(#paint1_linear_2_235)"/>
<path opacity="0.75" fill-rule="evenodd" clip-rule="evenodd" d="M4.43396 268.349V20.2894C4.43396 13.6338 6.87141 11.1734 8.32548 9.59348C9.77955 8.0136 9.84144 7.20779 7.75219 8.40063C5.66295 9.59348 1.48413 13.0677 1.48413 20.2894V268.349C1.48413 275.571 5.66295 279.045 7.75219 280.238C9.84144 281.431 9.77955 280.625 8.32548 279.045C6.87141 277.465 4.43396 275.005 4.43396 268.349Z" fill="url(#paint2_linear_2_235)"/>
<path fill-rule="evenodd" clip-rule="evenodd" d="M0 60.3374C0 59.5451 0.642301 58.9028 1.43462 58.9028V58.9028C2.22694 58.9028 2.86924 59.5451 2.86924 60.3374V94.7916C2.86924 95.5839 2.22694 96.2262 1.43462 96.2262V96.2262C0.642301 96.2262 0 95.5839 0 94.7916V60.3374Z" fill="#2E423C"/>
<path fill-rule="evenodd" clip-rule="evenodd" d="M148.842 90.7797C148.842 89.9874 149.484 89.3451 150.276 89.3451V89.3451C151.069 89.3451 151.711 89.9874 151.711 90.7797V115.141C151.711 115.934 151.069 116.576 150.276 116.576V116.576C149.484 116.576 148.842 115.934 148.842 115.141V90.7797Z" fill="#2E423C"/>
<path fill-rule="evenodd" clip-rule="evenodd" d="M62.809 7.2178L19.8062 7.2178C13.3884 7.2178 8.71212 11.6045 8.71212 17.3338V262.32C8.71212 269.79 15.9378 276.409 24.1081 276.409H127.753C135.623 276.409 143.149 269.739 143.149 262.32V17.996C143.149 11.1291 138.069 7.25864 132.055 7.2178L88.3705 7.2178C88.2049 7.24503 85.2041 8.48322 83.9358 11.6045C82.6675 14.7258 80.1155 17.214 77.3215 17.214H74.0764C72.7482 17.214 69.2517 15.9208 67.4812 11.6045C65.7107 7.28824 62.9746 7.24503 62.809 7.2178Z" fill="#36536B"/>
<mask id="mask0_2_235" style="mask-type:luminance" maskUnits="userSpaceOnUse" x="8" y="7" width="136" height="270">
<path fill-rule="evenodd" clip-rule="evenodd" d="M62.809 7.2178L19.8062 7.2178C13.3884 7.2178 8.71212 11.6045 8.71212 17.3338V262.32C8.71212 269.79 15.9378 276.409 24.1081 276.409H127.753C135.623 276.409 143.149 269.739 143.149 262.32V17.996C143.149 11.1291 138.069 7.25864 132.055 7.2178L88.3705 7.2178C88.2049 7.24503 85.2041 8.48322 83.9358 11.6045C82.6675 14.7258 80.1155 17.214 77.3215 17.214H74.0764C72.7482 17.214 69.2517 15.9208 67.4812 11.6045C65.7107 7.28824 62.9746 7.24503 62.809 7.2178Z" fill="white"/>
</mask>
<g mask="url(#mask0_2_235)">
</g>
<g filter="url(#filter0_d_2_235)">
<rect x="24.8517" y="82.36" width="101.719" height="110.78" rx="2" fill="#FBFCFE"/>
</g>
<path fill-rule="evenodd" clip-rule="evenodd" d="M87.3491 150.847L87.3492 151.52H86.4025L86.4025 150.848L86.3855 150.846C85.9606 150.794 85.6007 150.672 85.3056 150.481C84.8999 150.219 84.667 149.814 84.6069 149.266L85.7489 149.243C85.809 149.492 85.9386 149.681 86.1377 149.81C86.3368 149.94 86.5866 150.005 86.8871 150.005C87.0675 150.005 87.2271 149.975 87.3661 149.916C87.5051 149.857 87.6147 149.776 87.6948 149.675C87.775 149.573 87.815 149.457 87.815 149.326C87.815 149.125 87.7512 148.975 87.6235 148.875C87.4957 148.776 87.2991 148.696 87.0337 148.636L86.1433 148.444C85.7301 148.361 85.3989 148.196 85.1497 147.948C84.9005 147.7 84.7734 147.368 84.7684 146.951C84.7659 146.609 84.8579 146.313 85.0445 146.063C85.2311 145.813 85.4853 145.62 85.8071 145.484L85.9474 145.43C86.0902 145.38 86.2402 145.343 86.3974 145.318L86.421 145.316L86.4213 144.568H87.3718L87.3717 145.32L87.4652 145.336C87.6427 145.373 87.8063 145.428 87.9559 145.501C88.2552 145.648 88.4856 145.846 88.6471 146.093C88.8087 146.341 88.8869 146.614 88.8819 146.913L87.7737 146.932C87.7387 146.691 87.6585 146.501 87.5333 146.363C87.4081 146.224 87.2002 146.155 86.9097 146.155C86.7594 146.155 86.6254 146.172 86.5077 146.204C86.39 146.237 86.2886 146.283 86.2034 146.342C86.1183 146.401 86.0538 146.471 86.01 146.551C85.9661 146.632 85.9442 146.722 85.9442 146.823C85.9442 146.981 85.9974 147.106 86.1039 147.198C86.2103 147.289 86.4113 147.374 86.7068 147.452L87.5821 147.667C88.0755 147.785 88.4318 147.988 88.6509 148.274C88.87 148.561 88.9796 148.909 88.9796 149.318C88.9796 149.633 88.8938 149.906 88.7223 150.14C88.5507 150.374 88.3084 150.555 87.9954 150.683L87.8578 150.734C87.7169 150.781 87.5659 150.817 87.4047 150.84L87.3491 150.847ZM44.9807 148.802V150.8H44.1617V145.349H46.0438C46.432 145.349 46.7795 145.415 47.0863 145.548C47.3931 145.682 47.6347 145.878 47.8113 146.136C47.9879 146.395 48.0761 146.713 48.0761 147.09C48.0761 147.452 47.9954 147.761 47.8338 148.016C47.6723 148.271 47.4469 148.466 47.1576 148.6C46.8684 148.735 46.5334 148.802 46.1527 148.802H44.9807ZM44.9769 148.142H46.1302C46.4758 148.142 46.7576 148.042 46.9754 147.842C47.1933 147.643 47.3023 147.377 47.3023 147.045C47.3023 146.708 47.1896 146.45 46.9642 146.27C46.7388 146.091 46.4508 146.001 46.1001 146.001H44.9769V148.142ZM49.7866 150.875C50.0645 150.875 50.3144 150.818 50.536 150.704C50.7577 150.589 50.9411 150.383 51.0864 150.084L51.1502 150.8H51.8302V148.074C51.8302 147.808 51.7745 147.582 51.663 147.396C51.5516 147.21 51.3819 147.068 51.154 146.972C50.9261 146.875 50.6356 146.826 50.2824 146.826C49.9644 146.826 49.6876 146.872 49.4522 146.962C49.2168 147.053 49.0321 147.186 48.8981 147.364C48.7641 147.541 48.6896 147.759 48.6746 148.018H49.3733C49.4234 147.799 49.5292 147.642 49.6908 147.546C49.8523 147.451 50.037 147.403 50.2449 147.403C50.5204 147.401 50.7245 147.464 50.8572 147.592C50.9899 147.72 51.0563 147.896 51.0563 148.12V148.402L50.4177 148.421C49.749 148.434 49.2619 148.547 48.9563 148.76C48.6508 148.974 48.498 149.297 48.498 149.729C48.498 149.971 48.5531 150.177 48.6633 150.348C48.7735 150.518 48.9257 150.649 49.1198 150.74C49.3138 150.83 49.5361 150.875 49.7866 150.875ZM49.4898 150.138C49.635 150.255 49.8179 150.314 50.0383 150.314C50.161 150.314 50.2824 150.292 50.4026 150.248C50.5229 150.204 50.6318 150.143 50.7295 150.067C50.8271 149.99 50.9054 149.904 50.9643 149.808C51.0231 149.713 51.0538 149.615 51.0563 149.514V148.87L50.5304 148.881C50.2624 148.884 50.0351 148.911 49.8485 148.964C49.662 149.017 49.5192 149.098 49.4203 149.209C49.3214 149.32 49.2719 149.467 49.2719 149.65C49.2719 149.859 49.3445 150.021 49.4898 150.138ZM53.2156 152.044C53.401 152.044 53.5725 152.015 53.7303 151.957C53.8881 151.9 54.0327 151.797 54.1642 151.648C54.2957 151.5 54.4165 151.29 54.5267 151.019L56.1458 146.902H55.3569L54.275 149.782L53.1856 146.902H52.3817L53.8956 150.687L53.7754 151.015C53.7604 151.058 53.7378 151.104 53.7078 151.154C53.6777 151.205 53.6345 151.252 53.5782 151.296C53.5218 151.34 53.4454 151.374 53.349 151.399C53.2526 151.425 53.1292 151.433 52.979 151.426L52.5845 151.418V151.939L52.7216 151.991C52.8131 152.026 52.9777 152.044 53.2156 152.044ZM57.5872 148.225V150.8H56.7833V146.902H57.5646V147.464C57.6748 147.293 57.8251 147.144 58.0154 147.017C58.2058 146.89 58.4512 146.826 58.7517 146.826C58.892 146.826 59.0341 146.85 59.1781 146.898C59.3221 146.946 59.4549 147.017 59.5763 147.111C59.6978 147.205 59.7936 147.322 59.8637 147.46C59.9864 147.274 60.1505 147.122 60.3558 147.004C60.5612 146.885 60.7916 146.826 61.0471 146.826C61.1848 146.826 61.3276 146.848 61.4753 146.892C61.6231 146.936 61.7602 147.011 61.8867 147.115C62.0131 147.219 62.1158 147.363 62.1947 147.546C62.2736 147.73 62.313 147.962 62.313 148.244V150.8H61.5054V148.331C61.5054 148.117 61.4697 147.95 61.3983 147.829C61.3269 147.709 61.2343 147.624 61.1203 147.575C61.0064 147.526 60.8855 147.501 60.7578 147.501C60.6426 147.501 60.5224 147.524 60.3972 147.569C60.2719 147.614 60.1655 147.69 60.0778 147.795C59.9902 147.901 59.9464 148.044 59.9464 148.225V150.8H59.1424V148.157C59.1424 148.014 59.1042 147.893 59.0279 147.795C58.9515 147.697 58.8563 147.624 58.7423 147.575C58.6284 147.526 58.5151 147.501 58.4024 147.501C58.2771 147.501 58.1519 147.526 58.0267 147.577C57.9015 147.627 57.7969 147.705 57.713 147.812C57.6291 147.919 57.5872 148.057 57.5872 148.225ZM64.9499 150.875C65.2079 150.875 65.4546 150.828 65.69 150.734C65.9254 150.64 66.1264 150.5 66.293 150.314C66.4595 150.128 66.5653 149.901 66.6104 149.635H65.8666C65.814 149.844 65.7032 150.001 65.5341 150.106C65.3651 150.212 65.1653 150.265 64.9349 150.265C64.7045 150.265 64.5117 150.211 64.3564 150.104C64.2011 149.998 64.0853 149.852 64.0089 149.667C63.9325 149.482 63.8943 149.273 63.8943 149.039H66.6292V148.772C66.6292 148.377 66.5628 148.035 66.4301 147.744C66.2973 147.454 66.1026 147.229 65.8459 147.068C65.5892 146.907 65.273 146.826 64.8974 146.826C64.5167 146.826 64.1911 146.914 63.9206 147.09C63.6501 147.266 63.4435 147.509 63.3008 147.82C63.158 148.13 63.0866 148.488 63.0866 148.892C63.0866 149.302 63.1649 149.655 63.3214 149.952C63.478 150.248 63.6965 150.476 63.977 150.636C64.2575 150.796 64.5818 150.875 64.9499 150.875ZM63.8943 148.515H65.8628C65.8628 148.312 65.8278 148.126 65.7576 147.959C65.6875 147.792 65.5804 147.66 65.4364 147.563C65.2924 147.467 65.1115 147.418 64.8936 147.418C64.6707 147.418 64.4854 147.472 64.3376 147.58C64.1898 147.688 64.079 147.827 64.0051 147.995C63.9313 148.163 63.8943 148.337 63.8943 148.515ZM68.2727 150.8V148.225C68.2727 148.064 68.3165 147.93 68.4042 147.824C68.4918 147.717 68.607 147.637 68.7498 147.584C68.8925 147.531 69.0428 147.505 69.2006 147.505C69.436 147.505 69.6282 147.573 69.7772 147.709C69.9262 147.844 70.0007 148.052 70.0007 148.331V150.8H70.8047V148.244C70.8047 147.92 70.742 147.655 70.6168 147.45C70.4916 147.246 70.3257 147.095 70.1191 146.998C69.9125 146.901 69.6877 146.853 69.4447 146.853C69.2394 146.853 69.0584 146.882 68.9019 146.94C68.7454 146.997 68.6139 147.073 68.5075 147.166C68.401 147.259 68.3165 147.358 68.2539 147.464V146.902H67.4687V150.8H68.2727ZM73.4787 150.804C73.3797 150.819 73.2526 150.826 73.0974 150.826C72.8093 150.826 72.5858 150.787 72.4268 150.71C72.2678 150.632 72.1576 150.519 72.0962 150.372C72.0348 150.225 72.0042 150.047 72.0042 149.839V147.482H71.3731V146.902H72.0267L72.2258 145.756H72.8081V146.898H73.6796V147.482H72.8081L72.8118 149.808C72.8118 149.937 72.825 150.03 72.8513 150.089C72.8776 150.148 72.9227 150.186 72.9865 150.202C73.0504 150.219 73.1374 150.227 73.2476 150.227H73.7022V150.751C73.6521 150.771 73.5776 150.789 73.4787 150.804ZM77.6994 150.875C78.0876 150.875 78.4151 150.791 78.6818 150.621C78.9485 150.451 79.1514 150.216 79.2904 149.914C79.4294 149.612 79.4989 149.264 79.4989 148.87C79.4989 148.437 79.425 148.069 79.2772 147.763C79.1295 147.458 78.9216 147.225 78.6536 147.066C78.3856 146.906 78.0688 146.826 77.7032 146.826C77.32 146.826 76.9932 146.911 76.7227 147.081C76.4522 147.251 76.2462 147.489 76.1047 147.795C75.9632 148.102 75.8925 148.46 75.8925 148.87C75.8925 149.294 75.967 149.656 76.116 149.956C76.265 150.255 76.4754 150.483 76.7471 150.64C77.0188 150.797 77.3363 150.875 77.6994 150.875ZM77.1134 150.061C77.2636 150.189 77.4602 150.253 77.7032 150.253C77.9236 150.253 78.1083 150.195 78.2573 150.078C78.4063 149.961 78.5184 149.797 78.5935 149.584C78.6686 149.372 78.7062 149.126 78.7062 148.847C78.7062 148.588 78.673 148.353 78.6066 148.14C78.5403 147.928 78.4332 147.759 78.2855 147.633C78.1377 147.508 77.9436 147.445 77.7032 147.445C77.4778 147.445 77.2899 147.502 77.1397 147.616C76.9894 147.731 76.8761 147.893 76.7997 148.103C76.7233 148.312 76.6851 148.561 76.6851 148.847C76.6851 149.101 76.7189 149.335 76.7865 149.548C76.8542 149.762 76.9631 149.933 77.1134 150.061ZM81.4941 150.8V147.482H82.4032V146.902H81.479V146.404C81.479 146.236 81.5072 146.111 81.5636 146.029C81.6199 145.947 81.7257 145.907 81.881 145.907H82.4408L82.437 145.349H81.6631C81.3426 145.349 81.0996 145.431 80.9343 145.596C80.769 145.76 80.6864 145.998 80.6864 146.31V146.902H79.8937V147.482H80.6864V150.8H81.4941ZM91.6153 150.883C92.0912 150.883 92.5006 150.775 92.8438 150.561C93.1869 150.346 93.4505 150.021 93.6345 149.588C93.8186 149.154 93.9106 148.612 93.9106 147.961C93.9106 147.416 93.8211 146.941 93.642 146.538C93.463 146.135 93.2063 145.823 92.8719 145.603C92.5376 145.383 92.14 145.273 91.6792 145.273C91.2685 145.273 90.9103 145.352 90.6048 145.511C90.2992 145.669 90.0613 145.888 89.891 146.167C89.7207 146.446 89.6356 146.764 89.6356 147.12C89.6356 147.475 89.7163 147.781 89.8779 148.038C90.0394 148.296 90.2623 148.495 90.5466 148.634C90.8308 148.774 91.157 148.843 91.5252 148.843C91.728 148.843 91.9121 148.816 92.0774 148.762C92.2427 148.708 92.3873 148.632 92.5113 148.532C92.6353 148.433 92.7323 148.317 92.8024 148.184C92.8325 148.618 92.798 148.97 92.6991 149.239C92.6002 149.508 92.4524 149.704 92.2558 149.827C92.0592 149.95 91.8307 150.012 91.5702 150.012C91.3348 150.012 91.1395 149.946 90.9842 149.814C90.8289 149.682 90.7288 149.511 90.6837 149.3H89.6393C89.6619 149.619 89.7658 149.897 89.9511 150.135C90.1365 150.372 90.3756 150.556 90.6687 150.687C90.9617 150.818 91.2772 150.883 91.6153 150.883ZM91.0631 147.733C91.2284 147.89 91.445 147.969 91.713 147.969C91.8658 147.969 92.0142 147.934 92.1582 147.865C92.3022 147.796 92.4205 147.709 92.5132 147.603C92.6058 147.497 92.6522 147.388 92.6522 147.275C92.6547 147.031 92.6165 146.822 92.5376 146.647C92.4587 146.473 92.3485 146.339 92.207 146.246C92.0655 146.153 91.9008 146.106 91.713 146.106C91.5402 146.106 91.3862 146.147 91.2509 146.227C91.1157 146.307 91.0093 146.421 90.9316 146.566C90.854 146.712 90.8152 146.88 90.8152 147.071C90.8152 147.355 90.8978 147.576 91.0631 147.733ZM98.5975 150.8V149.873H95.8288V149.824C95.8288 149.658 95.8789 149.516 95.9791 149.398C96.0793 149.279 96.212 149.173 96.3773 149.079C96.5426 148.985 96.7236 148.892 96.9202 148.802C97.1168 148.711 97.314 148.613 97.5118 148.508C97.7097 148.402 97.8913 148.279 98.0565 148.138C98.2218 147.998 98.3546 147.828 98.4548 147.629C98.5549 147.431 98.605 147.195 98.605 146.921C98.605 146.591 98.5249 146.304 98.3646 146.057C98.2043 145.811 97.977 145.619 97.6828 145.481C97.3885 145.342 97.0385 145.273 96.6328 145.273C96.1594 145.273 95.7662 145.356 95.4532 145.522C95.1401 145.688 94.9053 145.912 94.7488 146.195C94.5923 146.478 94.5115 146.792 94.5065 147.139H95.5546C95.5997 146.82 95.7174 146.581 95.9077 146.423C96.0981 146.265 96.3297 146.186 96.6027 146.186C96.8657 146.186 97.0729 146.255 97.2244 146.393C97.376 146.531 97.4517 146.71 97.4517 146.928C97.4517 147.099 97.4004 147.247 97.2977 147.373C97.195 147.499 97.0592 147.612 96.8901 147.714C96.7211 147.816 96.5351 147.917 96.3322 148.018C96.1294 148.118 95.9272 148.225 95.7255 148.338C95.5239 148.451 95.3386 148.583 95.1696 148.732C95.0005 148.882 94.8646 149.058 94.762 149.26C94.6593 149.462 94.6079 149.702 94.6079 149.978V150.8H98.5975ZM102.86 150.161C102.492 150.642 101.98 150.883 101.323 150.883C100.665 150.883 100.151 150.643 99.7813 150.163C99.4119 149.683 99.2272 148.992 99.2272 148.089C99.2272 147.486 99.3123 146.975 99.4826 146.555C99.6529 146.135 99.8946 145.817 100.208 145.599C100.521 145.382 100.893 145.273 101.323 145.273C101.97 145.273 102.479 145.515 102.852 145.999C103.226 146.483 103.412 147.178 103.412 148.086C103.412 148.988 103.228 149.68 102.86 150.161ZM101.323 149.982C100.998 149.982 100.757 149.836 100.602 149.545C100.447 149.253 100.369 148.768 100.369 148.089C100.369 147.398 100.447 146.901 100.604 146.596C100.761 146.292 100.999 146.14 101.32 146.14C101.64 146.14 101.877 146.291 102.03 146.593C102.182 146.894 102.259 147.393 102.259 148.089C102.259 148.77 102.184 149.256 102.033 149.546C101.883 149.837 101.646 149.982 101.323 149.982ZM107.532 149.594V150.8H106.476L106.48 149.594H103.978V148.689L106.454 145.349H107.532V148.67H108.369V149.594H107.532ZM106.48 148.67H104.992L106.48 146.672V148.67ZM48.0697 155.792V156.588H47.262V155.792H48.0697ZM48.0547 161.24V157.342H47.2808V161.24H48.0547ZM51.3959 161.174C51.1668 161.268 50.8944 161.315 50.5789 161.315C50.3084 161.315 50.0548 161.273 49.8181 161.187C49.5815 161.102 49.3836 160.967 49.2246 160.784C49.0656 160.6 48.966 160.365 48.9259 160.079H49.6435C49.676 160.227 49.738 160.35 49.8294 160.446C49.9208 160.543 50.031 160.615 50.16 160.661C50.289 160.708 50.4273 160.731 50.5751 160.731C50.8205 160.731 51.019 160.686 51.1705 160.597C51.322 160.508 51.3978 160.37 51.3978 160.184C51.3978 160.051 51.3571 159.944 51.2757 159.864C51.1943 159.784 51.066 159.724 50.8907 159.687L50.1168 159.502C49.7962 159.427 49.5395 159.307 49.3467 159.142C49.1538 158.977 49.0562 158.747 49.0537 158.45C49.0537 158.221 49.1106 158.018 49.2246 157.839C49.3385 157.661 49.5082 157.521 49.7336 157.419C49.959 157.317 50.2395 157.266 50.5751 157.266C51.0134 157.266 51.3653 157.364 51.6307 157.56C51.8962 157.757 52.0339 158.041 52.044 158.412H51.349C51.3239 158.234 51.2432 158.094 51.1067 157.992C50.9702 157.89 50.7905 157.839 50.5676 157.839C50.3372 157.839 50.1481 157.885 50.0003 157.977C49.8526 158.069 49.7787 158.209 49.7787 158.397C49.7787 158.526 49.8325 158.627 49.9402 158.701C50.0479 158.775 50.2095 158.836 50.4248 158.884L51.1611 159.068C51.3515 159.119 51.508 159.185 51.6307 159.266C51.7534 159.348 51.8499 159.438 51.92 159.536C51.9901 159.634 52.0396 159.736 52.0684 159.841C52.0972 159.947 52.1116 160.046 52.1116 160.139C52.1116 160.385 52.0496 160.596 51.9256 160.771C51.8016 160.945 51.6251 161.08 51.3959 161.174ZM56.0687 161.315C56.3542 161.315 56.6103 161.26 56.8369 161.15C57.0636 161.039 57.2476 160.884 57.3891 160.686C57.5306 160.487 57.6152 160.257 57.6427 159.996H56.959C56.939 160.114 56.8926 160.228 56.82 160.339C56.7474 160.45 56.6491 160.54 56.5251 160.61C56.4011 160.681 56.2552 160.716 56.0875 160.716C55.7393 160.716 55.4745 160.588 55.2929 160.331C55.1113 160.075 55.0206 159.731 55.0206 159.298C55.0206 158.826 55.1182 158.475 55.3136 158.247C55.5089 158.018 55.7619 157.904 56.0724 157.904C56.2427 157.904 56.3899 157.937 56.5138 158.003C56.6378 158.07 56.7367 158.159 56.8106 158.269C56.8845 158.38 56.9327 158.499 56.9552 158.627H57.6502C57.6202 158.356 57.535 158.118 57.3948 157.915C57.2545 157.711 57.0711 157.552 56.8444 157.438C56.6178 157.324 56.3592 157.266 56.0687 157.266C55.6905 157.266 55.3655 157.352 55.0938 157.523C54.8221 157.694 54.6148 157.932 54.4721 158.239C54.3293 158.546 54.258 158.901 54.258 159.306C54.258 159.736 54.335 160.101 54.489 160.401C54.643 160.702 54.8565 160.929 55.1295 161.084C55.4025 161.238 55.7155 161.315 56.0687 161.315ZM61.0446 161.061C60.7778 161.231 60.4504 161.315 60.0622 161.315C59.699 161.315 59.3816 161.237 59.1099 161.08C58.8381 160.923 58.6278 160.695 58.4788 160.396C58.3297 160.096 58.2552 159.734 58.2552 159.31C58.2552 158.9 58.326 158.542 58.4675 158.235C58.609 157.929 58.815 157.691 59.0855 157.521C59.3559 157.351 59.6828 157.266 60.0659 157.266C60.4316 157.266 60.7484 157.346 61.0164 157.506C61.2844 157.665 61.4922 157.898 61.64 158.203C61.7877 158.509 61.8616 158.877 61.8616 159.31C61.8616 159.704 61.7921 160.052 61.6531 160.354C61.5141 160.656 61.3113 160.891 61.0446 161.061ZM60.0659 160.693C59.823 160.693 59.6264 160.629 59.4762 160.501C59.3259 160.373 59.2169 160.202 59.1493 159.988C59.0817 159.775 59.0479 159.541 59.0479 159.287C59.0479 159.001 59.0861 158.752 59.1625 158.543C59.2389 158.333 59.3522 158.171 59.5024 158.056C59.6527 157.942 59.8405 157.885 60.0659 157.885C60.3064 157.885 60.5005 157.948 60.6482 158.073C60.796 158.199 60.9031 158.368 60.9694 158.58C61.0358 158.793 61.069 159.028 61.069 159.287C61.069 159.566 61.0314 159.812 60.9563 160.024C60.8811 160.237 60.7691 160.401 60.6201 160.518C60.471 160.635 60.2863 160.693 60.0659 160.693ZM63.4662 158.665V161.24H62.6622V157.342H63.4436V157.904C63.5538 157.733 63.7041 157.584 63.8944 157.457C64.0847 157.33 64.3302 157.266 64.6307 157.266C64.771 157.266 64.9131 157.29 65.0571 157.338C65.2011 157.386 65.3338 157.457 65.4553 157.551C65.5768 157.645 65.6726 157.762 65.7427 157.9C65.8654 157.714 66.0294 157.562 66.2348 157.444C66.4402 157.325 66.6706 157.266 66.926 157.266C67.0638 157.266 67.2065 157.288 67.3543 157.332C67.502 157.376 67.6392 157.451 67.7656 157.555C67.8921 157.659 67.9948 157.803 68.0737 157.986C68.1526 158.17 68.192 158.402 68.192 158.684V161.24H67.3843V158.771C67.3843 158.557 67.3487 158.39 67.2773 158.269C67.2059 158.149 67.1132 158.064 66.9993 158.015C66.8853 157.966 66.7645 157.941 66.6368 157.941C66.5216 157.941 66.4013 157.964 66.2761 158.009C66.1509 158.054 66.0445 158.13 65.9568 158.235C65.8692 158.341 65.8253 158.484 65.8253 158.665V161.24H65.0214V158.597C65.0214 158.454 64.9832 158.333 64.9068 158.235C64.8304 158.137 64.7353 158.064 64.6213 158.015C64.5074 157.966 64.394 157.941 64.2813 157.941C64.1561 157.941 64.0309 157.966 63.9057 158.017C63.7805 158.067 63.6759 158.145 63.592 158.252C63.5081 158.359 63.4662 158.497 63.4662 158.665ZM69.9724 162.454V160.569C70.0175 160.654 70.0745 160.74 70.1433 160.827C70.2122 160.914 70.2955 160.994 70.3931 161.068C70.4908 161.143 70.6035 161.202 70.7312 161.248C70.859 161.293 71.003 161.315 71.1633 161.315C71.4964 161.315 71.7844 161.237 72.0273 161.08C72.2702 160.923 72.4574 160.691 72.5889 160.384C72.7204 160.078 72.7861 159.698 72.7861 159.246C72.7861 158.796 72.7204 158.424 72.5889 158.132C72.4574 157.839 72.2746 157.621 72.0404 157.479C71.8063 157.337 71.5364 157.266 71.2309 157.266C71.0681 157.266 70.9197 157.288 70.7857 157.33C70.6517 157.373 70.5328 157.43 70.4288 157.502C70.3249 157.574 70.2354 157.652 70.1602 157.736C70.0851 157.82 70.0237 157.905 69.9762 157.99L69.9686 157.342H69.1647V162.454H69.9724ZM70.427 160.505C70.5797 160.636 70.7688 160.701 70.9942 160.701C71.2922 160.701 71.537 160.585 71.7286 160.352C71.9202 160.12 72.016 159.756 72.016 159.261C72.016 158.836 71.9277 158.5 71.7512 158.252C71.5746 158.005 71.3223 157.881 70.9942 157.881C70.6561 157.881 70.4007 158.01 70.2279 158.267C70.055 158.525 69.9686 158.856 69.9686 159.261C69.9686 159.525 70.0068 159.765 70.0832 159.983C70.1596 160.2 70.2742 160.374 70.427 160.505ZM74.6402 161.293C74.6978 161.293 74.7598 161.286 74.8262 161.274C74.8926 161.261 74.9571 161.245 75.0197 161.225V160.712L74.8168 160.705C74.669 160.692 74.5595 160.638 74.4881 160.543C74.4167 160.447 74.381 160.309 74.381 160.128V155.638H73.5884V160.211C73.5884 160.349 73.6003 160.483 73.6241 160.612C73.6479 160.742 73.6961 160.857 73.7687 160.959C73.8413 161.061 73.9471 161.142 74.0861 161.202C74.2251 161.263 74.4098 161.293 74.6402 161.293ZM78.1668 161.174C77.9314 161.268 77.6847 161.315 77.4267 161.315C77.0586 161.315 76.7342 161.236 76.4537 161.076C76.1732 160.916 75.9547 160.688 75.7982 160.392C75.6417 160.095 75.5634 159.742 75.5634 159.332C75.5634 158.928 75.6348 158.57 75.7775 158.26C75.9203 157.949 76.1269 157.706 76.3974 157.53C76.6679 157.354 76.9934 157.266 77.3741 157.266C77.7498 157.266 78.066 157.347 78.3227 157.508C78.5794 157.669 78.7741 157.894 78.9068 158.184C79.0396 158.475 79.1059 158.817 79.1059 159.212V159.479H76.3711C76.3711 159.713 76.4093 159.922 76.4857 160.107C76.562 160.292 76.6779 160.438 76.8332 160.544C76.9884 160.651 77.1813 160.705 77.4117 160.705C77.6421 160.705 77.8418 160.652 78.0109 160.546C78.1799 160.441 78.2907 160.284 78.3433 160.075H79.0872C79.0421 160.341 78.9363 160.568 78.7697 160.754C78.6032 160.94 78.4022 161.08 78.1668 161.174ZM78.3396 158.955H76.3711C76.3711 158.777 76.408 158.603 76.4819 158.435C76.5558 158.267 76.6666 158.128 76.8144 158.02C76.9621 157.912 77.1475 157.858 77.3704 157.858C77.5882 157.858 77.7692 157.907 77.9132 158.003C78.0572 158.1 78.1643 158.232 78.2344 158.399C78.3045 158.566 78.3396 158.752 78.3396 158.955ZM81.7055 161.244C81.6066 161.259 81.4795 161.266 81.3242 161.266C81.0362 161.266 80.8127 161.227 80.6536 161.15C80.4946 161.072 80.3844 160.959 80.3231 160.812C80.2617 160.665 80.231 160.487 80.231 160.279V157.922H79.5999V157.342H80.2536L80.4527 156.196H81.0349V157.338H81.9065V157.922H81.0349L81.0387 160.248C81.0387 160.377 81.0518 160.47 81.0781 160.529C81.1044 160.588 81.1495 160.626 81.2134 160.642C81.2772 160.659 81.3643 160.667 81.4745 160.667H81.929V161.191C81.8789 161.211 81.8044 161.229 81.7055 161.244ZM84.3492 161.315C84.6072 161.315 84.8539 161.268 85.0893 161.174C85.3247 161.08 85.5257 160.94 85.6922 160.754C85.8588 160.568 85.9646 160.341 86.0097 160.075H85.2658C85.2132 160.284 85.1024 160.441 84.9334 160.546C84.7643 160.652 84.5646 160.705 84.3342 160.705C84.1038 160.705 83.9109 160.651 83.7557 160.544C83.6004 160.438 83.4846 160.292 83.4082 160.107C83.3318 159.922 83.2936 159.713 83.2936 159.479H86.0284V159.212C86.0284 158.817 85.9621 158.475 85.8293 158.184C85.6966 157.894 85.5019 157.669 85.2452 157.508C84.9885 157.347 84.6723 157.266 84.2966 157.266C83.9159 157.266 83.5904 157.354 83.3199 157.53C83.0494 157.706 82.8428 157.949 82.7 158.26C82.5573 158.57 82.4859 158.928 82.4859 159.332C82.4859 159.742 82.5642 160.095 82.7207 160.392C82.8772 160.688 83.0957 160.916 83.3762 161.076C83.6567 161.236 83.9811 161.315 84.3492 161.315ZM83.2936 158.955H85.2621C85.2621 158.752 85.227 158.566 85.1569 158.399C85.0868 158.232 84.9797 158.1 84.8357 158.003C84.6917 157.907 84.5107 157.858 84.2929 157.858C84.07 157.858 83.8846 157.912 83.7369 158.02C83.5891 158.128 83.4783 158.267 83.4044 158.435C83.3305 158.603 83.2936 158.777 83.2936 158.955ZM88.2843 161.315C88.4996 161.315 88.6837 161.286 88.8365 161.229C88.9893 161.171 89.1151 161.097 89.214 161.006C89.313 160.916 89.3912 160.82 89.4488 160.72C89.5064 160.619 89.549 160.526 89.5766 160.441L89.6667 161.24H90.2678V155.638H89.4601V157.934C89.4225 157.866 89.3693 157.793 89.3004 157.715C89.2316 157.637 89.1452 157.564 89.0412 157.496C88.9373 157.429 88.8171 157.373 88.6806 157.33C88.5441 157.288 88.3882 157.266 88.2129 157.266C87.8673 157.266 87.5774 157.349 87.3432 157.515C87.1091 157.681 86.9331 157.914 86.8154 158.215C86.6977 158.515 86.6389 158.867 86.6389 159.272C86.6389 159.933 86.7854 160.439 87.0784 160.789C87.3714 161.14 87.7734 161.315 88.2843 161.315ZM87.6964 160.331C87.8679 160.583 88.1152 160.708 88.4383 160.708C88.7989 160.708 89.0594 160.595 89.2197 160.367C89.38 160.14 89.4601 159.766 89.4601 159.246C89.4576 158.952 89.4213 158.703 89.3512 158.499C89.281 158.296 89.1727 158.142 89.0262 158.037C88.8797 157.933 88.6875 157.881 88.4496 157.881C88.1515 157.881 87.9086 157.988 87.7208 158.203C87.5329 158.418 87.439 158.766 87.439 159.246C87.439 159.718 87.5248 160.08 87.6964 160.331ZM94.0274 161.315C94.3054 161.315 94.5552 161.258 94.7769 161.144C94.9985 161.029 95.182 160.823 95.3272 160.524L95.3911 161.24H96.071V158.514C96.071 158.248 96.0153 158.022 95.9039 157.836C95.7924 157.65 95.6227 157.508 95.3948 157.412C95.1669 157.315 94.8764 157.266 94.5233 157.266C94.2052 157.266 93.9285 157.312 93.6931 157.402C93.4577 157.493 93.273 157.626 93.139 157.804C93.005 157.981 92.9305 158.199 92.9154 158.458H93.6142C93.6643 158.239 93.7701 158.082 93.9316 157.986C94.0932 157.891 94.2779 157.843 94.4857 157.843C94.7612 157.841 94.9653 157.904 95.0981 158.032C95.2308 158.16 95.2972 158.336 95.2972 158.56V158.842L94.6585 158.861C93.9898 158.874 93.5027 158.987 93.1972 159.2C92.8917 159.414 92.7389 159.737 92.7389 160.169C92.7389 160.411 92.794 160.617 92.9042 160.788C93.0144 160.958 93.1665 161.089 93.3606 161.18C93.5547 161.27 93.777 161.315 94.0274 161.315ZM93.7306 160.578C93.8759 160.695 94.0587 160.754 94.2791 160.754C94.4018 160.754 94.5233 160.732 94.6435 160.688C94.7637 160.644 94.8727 160.583 94.9703 160.507C95.068 160.43 95.1463 160.344 95.2051 160.248C95.264 160.153 95.2947 160.055 95.2972 159.954V159.31L94.7712 159.321C94.5033 159.324 94.276 159.351 94.0894 159.404C93.9028 159.457 93.7601 159.538 93.6611 159.649C93.5622 159.76 93.5128 159.907 93.5128 160.09C93.5128 160.299 93.5854 160.461 93.7306 160.578ZM97.9449 161.24V158.665C97.9449 158.504 97.9887 158.37 98.0763 158.264C98.164 158.157 98.2792 158.077 98.422 158.024C98.5647 157.971 98.715 157.945 98.8728 157.945C99.1082 157.945 99.3004 158.013 99.4494 158.149C99.5984 158.284 99.6729 158.492 99.6729 158.771V161.24H100.477V158.684C100.477 158.36 100.414 158.095 100.289 157.89C100.164 157.686 99.9979 157.535 99.7913 157.438C99.5846 157.341 99.3599 157.293 99.1169 157.293C98.9116 157.293 98.7306 157.322 98.5741 157.38C98.4176 157.437 98.2861 157.513 98.1797 157.606C98.0732 157.699 97.9887 157.798 97.9261 157.904V157.342H97.1409V161.24H97.9449ZM103.419 161.229C103.267 161.286 103.083 161.315 102.867 161.315C102.356 161.315 101.954 161.14 101.661 160.789C101.368 160.439 101.222 159.933 101.222 159.272C101.222 158.867 101.281 158.515 101.398 158.215C101.516 157.914 101.692 157.681 101.926 157.515C102.16 157.349 102.45 157.266 102.796 157.266C102.971 157.266 103.127 157.288 103.264 157.33C103.4 157.373 103.52 157.429 103.624 157.496C103.728 157.564 103.815 157.637 103.883 157.715C103.952 157.793 104.005 157.866 104.043 157.934V155.638H104.851V161.24H104.25L104.16 160.441C104.132 160.526 104.089 160.619 104.032 160.72C103.974 160.82 103.896 160.916 103.797 161.006C103.698 161.097 103.572 161.171 103.419 161.229ZM103.021 160.708C102.698 160.708 102.451 160.583 102.279 160.331C102.108 160.08 102.022 159.718 102.022 159.246C102.022 158.766 102.116 158.418 102.304 158.203C102.492 157.988 102.734 157.881 103.033 157.881C103.27 157.881 103.463 157.933 103.609 158.037C103.756 158.142 103.864 158.296 103.934 158.499C104.004 158.703 104.041 158.952 104.043 159.246C104.043 159.766 103.963 160.14 103.803 160.367C103.642 160.595 103.382 160.708 103.021 160.708ZM36.9978 171.009V172.894H36.1901V167.782H36.994L37.0015 168.43C37.0491 168.345 37.1105 168.26 37.1856 168.176C37.2607 168.092 37.3503 168.014 37.4542 167.942C37.5581 167.87 37.6771 167.813 37.8111 167.77C37.9451 167.728 38.0935 167.706 38.2562 167.706C38.5618 167.706 38.8316 167.777 39.0658 167.919C39.3 168.061 39.4828 168.279 39.6143 168.572C39.7458 168.864 39.8115 169.236 39.8115 169.686C39.8115 170.138 39.7458 170.518 39.6143 170.824C39.4828 171.131 39.2956 171.363 39.0526 171.52C38.8097 171.677 38.5217 171.755 38.1886 171.755C38.0283 171.755 37.8843 171.733 37.7566 171.688C37.6289 171.642 37.5162 171.583 37.4185 171.508C37.3208 171.434 37.2376 171.354 37.1687 171.267C37.0998 171.18 37.0428 171.094 36.9978 171.009ZM38.0196 171.141C37.7942 171.141 37.6051 171.076 37.4523 170.945C37.2995 170.814 37.185 170.64 37.1086 170.423C37.0322 170.205 36.994 169.965 36.994 169.701C36.994 169.296 37.0804 168.965 37.2532 168.707C37.426 168.45 37.6815 168.321 38.0196 168.321C38.3477 168.321 38.6 168.445 38.7765 168.692C38.9531 168.94 39.0414 169.276 39.0414 169.701C39.0414 170.196 38.9456 170.56 38.754 170.792C38.5624 171.025 38.3176 171.141 38.0196 171.141ZM41.4177 169.335V171.68H40.6137V167.782H41.3839V168.581C41.449 168.39 41.5398 168.23 41.6562 168.1C41.7727 167.971 41.9085 167.873 42.0638 167.806C42.2191 167.74 42.3831 167.706 42.5559 167.706C42.6085 167.706 42.6586 167.71 42.7062 167.716C42.7538 167.722 42.7913 167.733 42.8189 167.748V168.524C42.7863 168.509 42.7444 168.499 42.693 168.494C42.6417 168.489 42.5973 168.486 42.5597 168.483C42.3894 168.47 42.2341 168.479 42.0939 168.509C41.9536 168.54 41.8328 168.59 41.7313 168.66C41.6299 168.731 41.5523 168.822 41.4984 168.935C41.4446 169.049 41.4177 169.182 41.4177 169.335ZM45.0172 171.755C45.4054 171.755 45.7328 171.671 45.9996 171.501C46.2663 171.331 46.4692 171.096 46.6081 170.794C46.7471 170.492 46.8166 170.144 46.8166 169.75C46.8166 169.317 46.7428 168.949 46.595 168.643C46.4472 168.338 46.2394 168.105 45.9714 167.946C45.7034 167.786 45.3866 167.706 45.021 167.706C44.6378 167.706 44.311 167.791 44.0405 167.961C43.77 168.131 43.564 168.369 43.4225 168.675C43.281 168.982 43.2103 169.34 43.2103 169.75C43.2103 170.174 43.2848 170.536 43.4338 170.836C43.5828 171.135 43.7932 171.363 44.0649 171.52C44.3366 171.677 44.6541 171.755 45.0172 171.755ZM44.4312 170.941C44.5814 171.069 44.778 171.133 45.021 171.133C45.2414 171.133 45.4261 171.075 45.5751 170.958C45.7241 170.841 45.8362 170.677 45.9113 170.464C45.9864 170.252 46.024 170.006 46.024 169.727C46.024 169.468 45.9908 169.233 45.9244 169.02C45.8581 168.808 45.751 168.639 45.6032 168.513C45.4555 168.388 45.2614 168.325 45.021 168.325C44.7956 168.325 44.6077 168.382 44.4575 168.496C44.3072 168.611 44.1939 168.773 44.1175 168.983C44.0411 169.192 44.0029 169.441 44.0029 169.727C44.0029 169.981 44.0367 170.215 44.1043 170.428C44.172 170.642 44.2809 170.813 44.4312 170.941ZM49.1988 171.755C49.4843 171.755 49.7404 171.7 49.967 171.59C50.1937 171.479 50.3778 171.324 50.5193 171.126C50.6608 170.927 50.7453 170.697 50.7728 170.436H50.0891C50.0691 170.554 50.0228 170.668 49.9501 170.779C49.8775 170.89 49.7792 170.98 49.6552 171.05C49.5313 171.121 49.3854 171.156 49.2176 171.156C48.8695 171.156 48.6046 171.028 48.423 170.771C48.2415 170.515 48.1507 170.171 48.1507 169.738C48.1507 169.266 48.2484 168.915 48.4437 168.687C48.6391 168.458 48.892 168.344 49.2025 168.344C49.3729 168.344 49.52 168.377 49.644 168.443C49.7679 168.51 49.8669 168.599 49.9407 168.709C50.0146 168.82 50.0628 168.939 50.0854 169.067H50.7803C50.7503 168.796 50.6651 168.558 50.5249 168.355C50.3846 168.151 50.2012 167.992 49.9745 167.878C49.7479 167.764 49.4893 167.706 49.1988 167.706C48.8206 167.706 48.4957 167.792 48.2239 167.963C47.9522 168.134 47.745 168.372 47.6022 168.679C47.4595 168.986 47.3881 169.341 47.3881 169.746C47.3881 170.176 47.4651 170.541 47.6191 170.841C47.7731 171.142 47.9866 171.369 48.2596 171.524C48.5326 171.678 48.8457 171.755 49.1988 171.755ZM54.0188 171.614C53.7834 171.708 53.5367 171.755 53.2787 171.755C52.9106 171.755 52.5862 171.676 52.3057 171.516C52.0252 171.356 51.8067 171.128 51.6502 170.832C51.4937 170.535 51.4154 170.182 51.4154 169.772C51.4154 169.368 51.4868 169.01 51.6295 168.7C51.7723 168.389 51.9789 168.146 52.2494 167.97C52.5199 167.794 52.8455 167.706 53.2261 167.706C53.6018 167.706 53.918 167.787 54.1747 167.948C54.4314 168.109 54.6261 168.334 54.7588 168.624C54.8916 168.915 54.9579 169.257 54.9579 169.652V169.919H52.2231C52.2231 170.153 52.2613 170.362 52.3377 170.547C52.4141 170.732 52.5299 170.878 52.6852 170.984C52.8404 171.091 53.0333 171.145 53.2637 171.145C53.4941 171.145 53.6938 171.092 53.8629 170.986C54.0319 170.881 54.1427 170.724 54.1953 170.515H54.9392C54.8941 170.781 54.7883 171.008 54.6217 171.194C54.4552 171.38 54.2542 171.52 54.0188 171.614ZM54.1916 169.395H52.2231C52.2231 169.217 52.26 169.043 52.3339 168.875C52.4078 168.707 52.5186 168.568 52.6664 168.46C52.8141 168.352 52.9995 168.298 53.2224 168.298C53.4403 168.298 53.6212 168.347 53.7652 168.443C53.9092 168.54 54.0163 168.672 54.0864 168.839C54.1565 169.006 54.1916 169.192 54.1916 169.395ZM58.0158 171.614C57.7867 171.708 57.5143 171.755 57.1987 171.755C56.9283 171.755 56.6747 171.713 56.438 171.627C56.2014 171.542 56.0035 171.407 55.8445 171.224C55.6854 171.04 55.5859 170.805 55.5458 170.519H56.2633C56.2959 170.667 56.3579 170.79 56.4493 170.886C56.5407 170.983 56.6509 171.055 56.7799 171.101C56.9089 171.148 57.0472 171.171 57.195 171.171C57.4404 171.171 57.6389 171.126 57.7904 171.037C57.9419 170.948 58.0177 170.81 58.0177 170.624C58.0177 170.491 57.977 170.384 57.8956 170.304C57.8142 170.224 57.6859 170.164 57.5106 170.127L56.7367 169.942C56.4161 169.867 56.1594 169.747 55.9666 169.582C55.7737 169.417 55.6761 169.187 55.6735 168.89C55.6735 168.661 55.7305 168.458 55.8445 168.279C55.9584 168.101 56.1281 167.961 56.3535 167.859C56.5789 167.757 56.8594 167.706 57.195 167.706C57.6333 167.706 57.9851 167.804 58.2506 168C58.5161 168.197 58.6538 168.481 58.6638 168.852H57.9689C57.9438 168.674 57.8631 168.534 57.7266 168.432C57.5901 168.33 57.4104 168.279 57.1875 168.279C56.9571 168.279 56.768 168.325 56.6202 168.417C56.4725 168.509 56.3986 168.649 56.3986 168.837C56.3986 168.966 56.4524 169.067 56.5601 169.141C56.6678 169.215 56.8293 169.276 57.0447 169.324L57.781 169.508C57.9714 169.559 58.1279 169.625 58.2506 169.706C58.3733 169.788 58.4698 169.878 58.5399 169.976C58.61 170.074 58.6595 170.176 58.6883 170.281C58.7171 170.387 58.7315 170.486 58.7315 170.579C58.7315 170.825 58.6695 171.036 58.5455 171.211C58.4215 171.385 58.245 171.52 58.0158 171.614ZM60.95 171.755C61.2655 171.755 61.5379 171.708 61.767 171.614C61.9962 171.52 62.1728 171.385 62.2967 171.211C62.4207 171.036 62.4827 170.825 62.4827 170.579C62.4827 170.486 62.4683 170.387 62.4395 170.281C62.4107 170.176 62.3612 170.074 62.2911 169.976C62.221 169.878 62.1245 169.788 62.0018 169.706C61.8791 169.625 61.7226 169.559 61.5322 169.508L60.7959 169.324C60.5806 169.276 60.419 169.215 60.3113 169.141C60.2036 169.067 60.1498 168.966 60.1498 168.837C60.1498 168.649 60.2237 168.509 60.3714 168.417C60.5192 168.325 60.7083 168.279 60.9387 168.279C61.1616 168.279 61.3413 168.33 61.4778 168.432C61.6143 168.534 61.695 168.674 61.7201 168.852H62.4151C62.405 168.481 62.2673 168.197 62.0018 168C61.7364 167.804 61.3845 167.706 60.9462 167.706C60.6106 167.706 60.3301 167.757 60.1047 167.859C59.8793 167.961 59.7096 168.101 59.5957 168.279C59.4817 168.458 59.4248 168.661 59.4248 168.89C59.4273 169.187 59.5249 169.417 59.7178 169.582C59.9106 169.747 60.1673 169.867 60.4879 169.942L61.2618 170.127C61.4371 170.164 61.5654 170.224 61.6468 170.304C61.7282 170.384 61.7689 170.491 61.7689 170.624C61.7689 170.81 61.6932 170.948 61.5416 171.037C61.3901 171.126 61.1916 171.171 60.9462 171.171C60.7985 171.171 60.6601 171.148 60.5311 171.101C60.4021 171.055 60.2919 170.983 60.2005 170.886C60.1091 170.79 60.0471 170.667 60.0146 170.519H59.297C59.3371 170.805 59.4367 171.04 59.5957 171.224C59.7547 171.407 59.9526 171.542 60.1892 171.627C60.4259 171.713 60.6795 171.755 60.95 171.755ZM65.7418 171.614C65.5064 171.708 65.2597 171.755 65.0017 171.755C64.6336 171.755 64.3092 171.676 64.0287 171.516C63.7482 171.356 63.5297 171.128 63.3732 170.832C63.2167 170.535 63.1384 170.182 63.1384 169.772C63.1384 169.368 63.2098 169.01 63.3525 168.7C63.4953 168.389 63.7019 168.146 63.9724 167.97C64.2429 167.794 64.5685 167.706 64.9491 167.706C65.3248 167.706 65.641 167.787 65.8977 167.948C66.1544 168.109 66.3491 168.334 66.4818 168.624C66.6146 168.915 66.6809 169.257 66.6809 169.652V169.919H63.9461C63.9461 170.153 63.9843 170.362 64.0607 170.547C64.1371 170.732 64.2529 170.878 64.4082 170.984C64.5634 171.091 64.7563 171.145 64.9867 171.145C65.2171 171.145 65.4168 171.092 65.5859 170.986C65.7549 170.881 65.8657 170.724 65.9183 170.515H66.6622C66.6171 170.781 66.5113 171.008 66.3447 171.194C66.1782 171.38 65.9772 171.52 65.7418 171.614ZM65.9146 169.395H63.9461C63.9461 169.217 63.983 169.043 64.0569 168.875C64.1308 168.707 64.2416 168.568 64.3894 168.46C64.5371 168.352 64.7225 168.298 64.9454 168.298C65.1633 168.298 65.3442 168.347 65.4882 168.443C65.6322 168.54 65.7393 168.672 65.8094 168.839C65.8795 169.006 65.9146 169.192 65.9146 169.395ZM69.489 171.669C69.3362 171.726 69.1522 171.755 68.9368 171.755C68.4259 171.755 68.0239 171.58 67.7309 171.229C67.4379 170.879 67.2914 170.373 67.2914 169.712C67.2914 169.307 67.3502 168.955 67.4679 168.655C67.5856 168.354 67.7616 168.121 67.9957 167.955C68.2299 167.789 68.5198 167.706 68.8654 167.706C69.0407 167.706 69.1966 167.728 69.3331 167.77C69.4696 167.813 69.5898 167.869 69.6937 167.936C69.7977 168.004 69.8841 168.077 69.953 168.155C70.0218 168.233 70.075 168.306 70.1126 168.374V166.078H70.9203V171.68H70.3192L70.2291 170.881C70.2015 170.966 70.1589 171.059 70.1013 171.16C70.0437 171.26 69.9655 171.356 69.8666 171.446C69.7676 171.537 69.6418 171.611 69.489 171.669ZM69.0908 171.148C68.7677 171.148 68.5204 171.023 68.3489 170.771C68.1773 170.52 68.0915 170.158 68.0915 169.686C68.0915 169.206 68.1854 168.858 68.3733 168.643C68.5611 168.428 68.804 168.321 69.1021 168.321C69.34 168.321 69.5322 168.373 69.6787 168.477C69.8252 168.582 69.9335 168.736 70.0037 168.939C70.0738 169.143 70.1101 169.392 70.1126 169.686C70.1126 170.206 70.0325 170.58 69.8722 170.807C69.7119 171.035 69.4514 171.148 69.0908 171.148ZM75.8313 171.614C75.6022 171.708 75.3298 171.755 75.0143 171.755C74.7438 171.755 74.4902 171.713 74.2535 171.627C74.0169 171.542 73.819 171.407 73.66 171.224C73.501 171.04 73.4014 170.805 73.3613 170.519H74.0789C74.1114 170.667 74.1734 170.79 74.2648 170.886C74.3562 170.983 74.4664 171.055 74.5954 171.101C74.7244 171.148 74.8627 171.171 75.0105 171.171C75.2559 171.171 75.4544 171.126 75.6059 171.037C75.7575 170.948 75.8332 170.81 75.8332 170.624C75.8332 170.491 75.7925 170.384 75.7111 170.304C75.6297 170.224 75.5014 170.164 75.3261 170.127L74.5522 169.942C74.2316 169.867 73.9749 169.747 73.7821 169.582C73.5892 169.417 73.4916 169.187 73.4891 168.89C73.4891 168.661 73.546 168.458 73.66 168.279C73.7739 168.101 73.9436 167.961 74.169 167.859C74.3944 167.757 74.6749 167.706 75.0105 167.706C75.4488 167.706 75.8007 167.804 76.0661 168C76.3316 168.197 76.4693 168.481 76.4794 168.852H75.7844C75.7593 168.674 75.6786 168.534 75.5421 168.432C75.4056 168.33 75.2259 168.279 75.003 168.279C74.7726 168.279 74.5835 168.325 74.4357 168.417C74.288 168.509 74.2141 168.649 74.2141 168.837C74.2141 168.966 74.2679 169.067 74.3756 169.141C74.4833 169.215 74.6449 169.276 74.8602 169.324L75.5965 169.508C75.7869 169.559 75.9434 169.625 76.0661 169.706C76.1888 169.788 76.2853 169.878 76.3554 169.976C76.4255 170.074 76.475 170.176 76.5038 170.281C76.5326 170.387 76.547 170.486 76.547 170.579C76.547 170.825 76.485 171.036 76.361 171.211C76.2371 171.385 76.0605 171.52 75.8313 171.614ZM78.8293 171.755C79.0072 171.758 79.1756 171.732 79.3346 171.678C79.4936 171.624 79.6314 171.536 79.7478 171.414C79.8643 171.292 79.9451 171.13 79.9902 170.926L80.0803 171.68H80.7039V167.782H79.9038V170.319C79.9038 170.588 79.8236 170.792 79.6633 170.932C79.503 171.071 79.2902 171.141 79.0247 171.141C78.7317 171.141 78.5125 171.068 78.3673 170.922C78.222 170.776 78.1494 170.587 78.1494 170.353V167.782H77.3417V170.44C77.3417 170.656 77.3824 170.846 77.4638 171.009C77.5452 171.172 77.6554 171.309 77.7944 171.42C77.9334 171.53 78.0918 171.613 78.2696 171.669C78.4474 171.724 78.634 171.753 78.8293 171.755ZM84.0273 171.59C83.8007 171.7 83.5446 171.755 83.2591 171.755C82.906 171.755 82.5929 171.678 82.3199 171.524C82.047 171.369 81.8335 171.142 81.6794 170.841C81.5254 170.541 81.4484 170.176 81.4484 169.746C81.4484 169.341 81.5198 168.986 81.6625 168.679C81.8053 168.372 82.0125 168.134 82.2843 167.963C82.556 167.792 82.8809 167.706 83.2591 167.706C83.5496 167.706 83.8082 167.764 84.0349 167.878C84.2615 167.992 84.445 168.151 84.5852 168.355C84.7255 168.558 84.8106 168.796 84.8407 169.067H84.1457C84.1231 168.939 84.0749 168.82 84.001 168.709C83.9272 168.599 83.8282 168.51 83.7043 168.443C83.5803 168.377 83.4332 168.344 83.2629 168.344C82.9523 168.344 82.6994 168.458 82.504 168.687C82.3087 168.915 82.211 169.266 82.211 169.738C82.211 170.171 82.3018 170.515 82.4834 170.771C82.6649 171.028 82.9298 171.156 83.2779 171.156C83.4457 171.156 83.5916 171.121 83.7155 171.05C83.8395 170.98 83.9378 170.89 84.0104 170.779C84.0831 170.668 84.1294 170.554 84.1494 170.436H84.8331C84.8056 170.697 84.7211 170.927 84.5796 171.126C84.4381 171.324 84.254 171.479 84.0273 171.59ZM87.2564 171.755C87.5419 171.755 87.798 171.7 88.0246 171.59C88.2513 171.479 88.4354 171.324 88.5769 171.126C88.7184 170.927 88.8029 170.697 88.8304 170.436H88.1467C88.1267 170.554 88.0803 170.668 88.0077 170.779C87.9351 170.89 87.8368 170.98 87.7128 171.05C87.5889 171.121 87.443 171.156 87.2752 171.156C86.9271 171.156 86.6622 171.028 86.4806 170.771C86.2991 170.515 86.2083 170.171 86.2083 169.738C86.2083 169.266 86.306 168.915 86.5013 168.687C86.6966 168.458 86.9496 168.344 87.2601 168.344C87.4304 168.344 87.5776 168.377 87.7016 168.443C87.8255 168.51 87.9244 168.599 87.9983 168.709C88.0722 168.82 88.1204 168.939 88.143 169.067H88.8379C88.8079 168.796 88.7227 168.558 88.5825 168.355C88.4422 168.151 88.2588 167.992 88.0321 167.878C87.8055 167.764 87.5469 167.706 87.2564 167.706C86.8782 167.706 86.5533 167.792 86.2815 167.963C86.0098 168.134 85.8026 168.372 85.6598 168.679C85.5171 168.986 85.4457 169.341 85.4457 169.746C85.4457 170.176 85.5227 170.541 85.6767 170.841C85.8307 171.142 86.0442 171.369 86.3172 171.524C86.5902 171.678 86.9033 171.755 87.2564 171.755ZM92.0764 171.614C91.841 171.708 91.5943 171.755 91.3363 171.755C90.9682 171.755 90.6438 171.676 90.3633 171.516C90.0828 171.356 89.8643 171.128 89.7078 170.832C89.5513 170.535 89.473 170.182 89.473 169.772C89.473 169.368 89.5444 169.01 89.6871 168.7C89.8299 168.389 90.0365 168.146 90.307 167.97C90.5775 167.794 90.903 167.706 91.2837 167.706C91.6594 167.706 91.9756 167.787 92.2323 167.948C92.489 168.109 92.6837 168.334 92.8164 168.624C92.9492 168.915 93.0155 169.257 93.0155 169.652V169.919H90.2807C90.2807 170.153 90.3189 170.362 90.3953 170.547C90.4717 170.732 90.5875 170.878 90.7428 170.984C90.898 171.091 91.0909 171.145 91.3213 171.145C91.5517 171.145 91.7514 171.092 91.9205 170.986C92.0895 170.881 92.2003 170.724 92.2529 170.515H92.9968C92.9517 170.781 92.8459 171.008 92.6793 171.194C92.5128 171.38 92.3118 171.52 92.0764 171.614ZM92.2492 169.395H90.2807C90.2807 169.217 90.3176 169.043 90.3915 168.875C90.4654 168.707 90.5762 168.568 90.724 168.46C90.8717 168.352 91.0571 168.298 91.28 168.298C91.4978 168.298 91.6788 168.347 91.8228 168.443C91.9668 168.54 92.0739 168.672 92.144 168.839C92.2141 169.006 92.2492 169.192 92.2492 169.395ZM96.0734 171.614C95.8443 171.708 95.5719 171.755 95.2563 171.755C94.9859 171.755 94.7323 171.713 94.4956 171.627C94.259 171.542 94.0611 171.407 93.9021 171.224C93.743 171.04 93.6435 170.805 93.6034 170.519H94.3209C94.3535 170.667 94.4155 170.79 94.5069 170.886C94.5983 170.983 94.7085 171.055 94.8375 171.101C94.9665 171.148 95.1048 171.171 95.2526 171.171C95.498 171.171 95.6965 171.126 95.848 171.037C95.9995 170.948 96.0753 170.81 96.0753 170.624C96.0753 170.491 96.0346 170.384 95.9532 170.304C95.8718 170.224 95.7435 170.164 95.5681 170.127L94.7943 169.942C94.4737 169.867 94.217 169.747 94.0242 169.582C93.8313 169.417 93.7337 169.187 93.7311 168.89C93.7311 168.661 93.7881 168.458 93.9021 168.279C94.016 168.101 94.1857 167.961 94.4111 167.859C94.6365 167.757 94.917 167.706 95.2526 167.706C95.6909 167.706 96.0427 167.804 96.3082 168C96.5737 168.197 96.7114 168.481 96.7214 168.852H96.0265C96.0014 168.674 95.9207 168.534 95.7842 168.432C95.6477 168.33 95.468 168.279 95.2451 168.279C95.0147 168.279 94.8256 168.325 94.6778 168.417C94.5301 168.509 94.4562 168.649 94.4562 168.837C94.4562 168.966 94.51 169.067 94.6177 169.141C94.7254 169.215 94.8869 169.276 95.1023 169.324L95.8386 169.508C96.029 169.559 96.1855 169.625 96.3082 169.706C96.4309 169.788 96.5273 169.878 96.5975 169.976C96.6676 170.074 96.7171 170.176 96.7459 170.281C96.7747 170.387 96.7891 170.486 96.7891 170.579C96.7891 170.825 96.7271 171.036 96.6031 171.211C96.4791 171.385 96.3026 171.52 96.0734 171.614ZM99.0076 171.755C99.3231 171.755 99.5955 171.708 99.8246 171.614C100.054 171.52 100.23 171.385 100.354 171.211C100.478 171.036 100.54 170.825 100.54 170.579C100.54 170.486 100.526 170.387 100.497 170.281C100.468 170.176 100.419 170.074 100.349 169.976C100.279 169.878 100.182 169.788 100.059 169.706C99.9367 169.625 99.7802 169.559 99.5898 169.508L98.8535 169.324C98.6382 169.276 98.4766 169.215 98.3689 169.141C98.2612 169.067 98.2074 168.966 98.2074 168.837C98.2074 168.649 98.2813 168.509 98.429 168.417C98.5768 168.325 98.7659 168.279 98.9963 168.279C99.2192 168.279 99.3989 168.33 99.5354 168.432C99.6719 168.534 99.7526 168.674 99.7777 168.852H100.473C100.463 168.481 100.325 168.197 100.059 168C99.794 167.804 99.4421 167.706 99.0038 167.706C98.6682 167.706 98.3877 167.757 98.1623 167.859C97.9369 167.961 97.7672 168.101 97.6533 168.279C97.5393 168.458 97.4824 168.661 97.4824 168.89C97.4849 169.187 97.5825 169.417 97.7754 169.582C97.9682 169.747 98.2249 169.867 98.5455 169.942L99.3194 170.127C99.4947 170.164 99.623 170.224 99.7044 170.304C99.7858 170.384 99.8265 170.491 99.8265 170.624C99.8265 170.81 99.7508 170.948 99.5992 171.037C99.4477 171.126 99.2492 171.171 99.0038 171.171C98.856 171.171 98.7177 171.148 98.5887 171.101C98.4597 171.055 98.3495 170.983 98.2581 170.886C98.1667 170.79 98.1047 170.667 98.0722 170.519H97.3546C97.3947 170.805 97.4943 171.04 97.6533 171.224C97.8123 171.407 98.0102 171.542 98.2468 171.627C98.4835 171.713 98.7371 171.755 99.0076 171.755ZM102.729 168.362V171.68H101.921V168.362H101.128V167.782H101.921V167.19C101.921 166.878 102.004 166.64 102.169 166.476C102.334 166.311 102.577 166.229 102.898 166.229H103.672L103.675 166.787H103.116C102.96 166.787 102.855 166.827 102.798 166.909C102.742 166.991 102.714 167.116 102.714 167.284V167.782H103.638V168.362H102.729ZM105.805 171.755C105.983 171.758 106.151 171.732 106.31 171.678C106.469 171.624 106.607 171.536 106.723 171.414C106.84 171.292 106.92 171.13 106.965 170.926L107.056 171.68H107.679V167.782H106.879V170.319C106.879 170.588 106.799 170.792 106.639 170.932C106.478 171.071 106.266 171.141 106 171.141C105.707 171.141 105.488 171.068 105.343 170.922C105.197 170.776 105.125 170.587 105.125 170.353V167.782H104.317V170.44C104.317 170.656 104.358 170.846 104.439 171.009C104.521 171.172 104.631 171.309 104.77 171.42C104.909 171.53 105.067 171.613 105.245 171.669C105.423 171.724 105.609 171.753 105.805 171.755ZM109.932 171.714C109.866 171.726 109.804 171.733 109.746 171.733C109.516 171.733 109.331 171.703 109.192 171.642C109.053 171.582 108.947 171.501 108.875 171.399C108.802 171.297 108.754 171.182 108.73 171.052C108.706 170.923 108.694 170.789 108.694 170.651V166.078H109.487V170.568C109.487 170.749 109.523 170.887 109.594 170.983C109.665 171.078 109.775 171.132 109.923 171.145L110.126 171.152V171.665C110.063 171.685 109.998 171.701 109.932 171.714ZM111.868 171.733C111.925 171.733 111.987 171.726 112.054 171.714C112.12 171.701 112.184 171.685 112.247 171.665V171.152L112.044 171.145C111.896 171.132 111.787 171.078 111.715 170.983C111.644 170.887 111.608 170.749 111.608 170.568V166.078H110.816V170.651C110.816 170.789 110.828 170.923 110.851 171.052C110.875 171.182 110.923 171.297 110.996 171.399C111.069 171.501 111.175 171.582 111.314 171.642C111.453 171.703 111.637 171.733 111.868 171.733ZM113.846 172.837C113.689 172.895 113.517 172.924 113.332 172.924C113.094 172.924 112.929 172.906 112.838 172.871L112.701 172.819V172.298L113.095 172.306C113.245 172.313 113.369 172.305 113.465 172.279C113.562 172.254 113.638 172.22 113.694 172.176C113.751 172.132 113.794 172.085 113.824 172.034C113.854 171.984 113.876 171.938 113.891 171.895L114.012 171.567L112.498 167.782H113.302L114.391 170.662L115.473 167.782H116.262L114.643 171.899C114.533 172.17 114.412 172.38 114.28 172.528C114.149 172.677 114.004 172.78 113.846 172.837Z" fill="#36536B"/>
<ellipse opacity="0.25" cx="75.1331" cy="119.48" rx="16.1825" ry="16.24" fill="#BA4270"/>
<path d="M69.9316 120.464L72.5768 123.118L80.248 115.42" stroke="#BA4270" stroke-width="3"/>
<rect x="38.1445" y="184.44" width="75.711" height="17.4" rx="8.7" fill="#BA4270"/>
<path fill-rule="evenodd" clip-rule="evenodd" d="M67.787 195.176C67.43 195.365 66.977 195.46 66.4281 195.46H65.0867V190.847H65.6605C65.8056 190.847 65.9508 190.848 66.096 190.849C66.2411 190.85 66.3624 190.852 66.4599 190.854C67.0173 190.866 67.4718 190.966 67.8236 191.153C68.1754 191.341 68.4334 191.602 68.5976 191.938C68.7618 192.274 68.844 192.672 68.844 193.131C68.844 193.61 68.7571 194.023 68.5833 194.371C68.4095 194.718 68.1441 194.987 67.787 195.176ZM66.0213 194.707H66.4472C66.71 194.707 66.9489 194.656 67.164 194.554C67.3791 194.452 67.5513 194.285 67.6805 194.053C67.8098 193.821 67.8744 193.512 67.8744 193.125C67.8744 192.766 67.8172 192.474 67.7028 192.249C67.5884 192.025 67.4252 191.861 67.2133 191.756C67.0014 191.652 66.7502 191.6 66.4599 191.6H66.0213V194.707ZM70.4416 191.689V190.85H69.5389V191.689H70.4416ZM70.4321 192.162V195.46H69.5452V192.162H70.4321ZM72.5256 195.524C72.799 195.524 73.0395 195.483 73.2472 195.403C73.4549 195.322 73.617 195.204 73.7335 195.05C73.8501 194.896 73.9084 194.709 73.9084 194.49C73.9084 194.416 73.8962 194.332 73.8718 194.24C73.8474 194.147 73.8035 194.055 73.7399 193.964C73.6763 193.872 73.5868 193.788 73.4713 193.71C73.3558 193.633 73.2059 193.572 73.0215 193.527L72.4875 193.406C72.3095 193.369 72.1781 193.326 72.0933 193.276C72.0086 193.226 71.9662 193.158 71.9662 193.071C71.9662 192.954 72.0181 192.867 72.1219 192.809C72.2258 192.752 72.3582 192.723 72.5193 192.723C72.674 192.723 72.8027 192.758 72.9055 192.827C73.0083 192.896 73.0713 192.994 73.0946 193.122H73.8702C73.866 192.796 73.7425 192.544 73.4999 192.366C73.2573 192.187 72.9336 192.098 72.5288 192.098C72.23 192.098 71.9778 192.143 71.7723 192.235C71.5667 192.326 71.4115 192.451 71.3066 192.608C71.2017 192.766 71.1493 192.943 71.1493 193.141C71.1535 193.413 71.2436 193.623 71.4194 193.771C71.5953 193.919 71.8284 194.023 72.1188 194.085L72.6973 194.206C72.8456 194.234 72.9521 194.274 73.0167 194.328C73.0814 194.381 73.1137 194.452 73.1137 194.541C73.1137 194.658 73.0591 194.745 72.95 194.801C72.8409 194.858 72.6973 194.886 72.5193 194.886C72.4345 194.886 72.3455 194.871 72.2523 194.843C72.159 194.814 72.0758 194.766 72.0027 194.698C71.9296 194.63 71.8793 194.537 71.8517 194.42H71.0475C71.0878 194.68 71.181 194.891 71.3273 195.053C71.4735 195.216 71.6525 195.335 71.8645 195.411C72.0764 195.486 72.2968 195.524 72.5256 195.524ZM75.4361 193.348V195.46H74.5079V192.162H75.417V192.627C75.5166 192.483 75.6507 192.358 75.8191 192.254C75.9876 192.15 76.2001 192.098 76.4565 192.098C76.5688 192.098 76.6832 192.118 76.7998 192.158C76.9163 192.199 77.026 192.258 77.1288 192.335C77.2315 192.413 77.3147 192.51 77.3783 192.627C77.4843 192.476 77.6236 192.35 77.7963 192.249C77.969 192.148 78.1613 192.098 78.3732 192.098C78.4961 192.098 78.6206 192.118 78.7467 192.158C78.8728 192.199 78.9888 192.265 79.0948 192.356C79.2008 192.448 79.286 192.569 79.3507 192.721C79.4153 192.873 79.4476 193.061 79.4476 193.284V195.46H78.5195V193.399C78.5195 193.267 78.4935 193.162 78.4416 193.082C78.3897 193.002 78.324 192.945 78.2445 192.91C78.165 192.875 78.0808 192.857 77.9918 192.857C77.9091 192.857 77.8254 192.873 77.7407 192.906C77.6559 192.939 77.5839 192.992 77.5245 193.064C77.4652 193.137 77.4355 193.231 77.4355 193.348V195.46H76.5105V193.316C76.5105 193.216 76.484 193.132 76.431 193.064C76.3781 192.996 76.3118 192.945 76.2324 192.91C76.1529 192.875 76.0718 192.857 75.9892 192.857C75.9044 192.857 75.8197 192.875 75.7349 192.91C75.6501 192.945 75.5791 192.999 75.5219 193.072C75.4647 193.146 75.4361 193.238 75.4361 193.348ZM81.0962 191.689V190.85H80.1934V191.689H81.0962ZM81.0866 192.162V195.46H80.1998V192.162H81.0866ZM83.1802 195.524C83.4535 195.524 83.6941 195.483 83.9017 195.403C84.1094 195.322 84.2715 195.204 84.3881 195.05C84.5046 194.896 84.5629 194.709 84.5629 194.49C84.5629 194.416 84.5507 194.332 84.5264 194.24C84.502 194.147 84.458 194.055 84.3944 193.964C84.3309 193.872 84.2413 193.788 84.1258 193.71C84.0103 193.633 83.8604 193.572 83.676 193.527L83.142 193.406C82.964 193.369 82.8326 193.326 82.7479 193.276C82.6631 193.226 82.6207 193.158 82.6207 193.071C82.6207 192.954 82.6726 192.867 82.7765 192.809C82.8803 192.752 83.0128 192.723 83.1738 192.723C83.3285 192.723 83.4572 192.758 83.56 192.827C83.6628 192.896 83.7258 192.994 83.7492 193.122H84.5248C84.5205 192.796 84.3971 192.544 84.1544 192.366C83.9118 192.187 83.5881 192.098 83.1833 192.098C82.8846 192.098 82.6324 192.143 82.4268 192.235C82.2213 192.326 82.066 192.451 81.9611 192.608C81.8562 192.766 81.8038 192.943 81.8038 193.141C81.808 193.413 81.8981 193.623 82.074 193.771C82.2499 193.919 82.483 194.023 82.7733 194.085L83.3518 194.206C83.5002 194.234 83.6066 194.274 83.6713 194.328C83.7359 194.381 83.7682 194.452 83.7682 194.541C83.7682 194.658 83.7137 194.745 83.6045 194.801C83.4954 194.858 83.3518 194.886 83.1738 194.886C83.089 194.886 83 194.871 82.9068 194.843C82.8136 194.814 82.7304 194.766 82.6573 194.698C82.5842 194.63 82.5338 194.537 82.5063 194.42H81.7021C81.7423 194.68 81.8356 194.891 81.9818 195.053C82.128 195.216 82.3071 195.335 82.519 195.411C82.7309 195.486 82.9513 195.524 83.1802 195.524ZM87.1428 195.403C86.9351 195.483 86.6946 195.524 86.4212 195.524C86.1924 195.524 85.972 195.486 85.7601 195.411C85.5481 195.335 85.3691 195.216 85.2229 195.053C85.0766 194.891 84.9834 194.68 84.9431 194.42H85.7473C85.7749 194.537 85.8252 194.63 85.8983 194.698C85.9714 194.766 86.0546 194.814 86.1479 194.843C86.2411 194.871 86.3301 194.886 86.4149 194.886C86.5929 194.886 86.7365 194.858 86.8456 194.801C86.9547 194.745 87.0093 194.658 87.0093 194.541C87.0093 194.452 86.977 194.381 86.9123 194.328C86.8477 194.274 86.7412 194.234 86.5929 194.206L86.0144 194.085C85.724 194.023 85.4909 193.919 85.315 193.771C85.1391 193.623 85.0491 193.413 85.0448 193.141C85.0448 192.943 85.0973 192.766 85.2022 192.608C85.3071 192.451 85.4623 192.326 85.6679 192.235C85.8734 192.143 86.1256 192.098 86.4244 192.098C86.8292 192.098 87.1529 192.187 87.3955 192.366C87.6381 192.544 87.7616 192.796 87.7658 193.122H86.9902C86.9669 192.994 86.9039 192.896 86.8011 192.827C86.6983 192.758 86.5696 192.723 86.4149 192.723C86.2538 192.723 86.1214 192.752 86.0175 192.809C85.9137 192.867 85.8618 192.954 85.8618 193.071C85.8618 193.158 85.9042 193.226 85.9889 193.276C86.0737 193.326 86.2051 193.369 86.3831 193.406L86.9171 193.527C87.1015 193.572 87.2514 193.633 87.3669 193.71C87.4824 193.788 87.5719 193.872 87.6355 193.964C87.6991 194.055 87.743 194.147 87.7674 194.24C87.7918 194.332 87.804 194.416 87.804 194.49C87.804 194.709 87.7457 194.896 87.6291 195.05C87.5126 195.204 87.3505 195.322 87.1428 195.403Z" fill="#FBFCFE"/>
<defs>
<filter id="filter0_d_2_235" x="19.8517" y="77.36" width="131.719" height="140.78" filterUnits="userSpaceOnUse" color-interpolation-filters="sRGB">
<feFlood flood-opacity="0" result="BackgroundImageFix"/>
<feColorMatrix in="SourceAlpha" type="matrix" values="0 0 0 0 0 0 0 0 0 0 0 0 0 0 0 0 0 0 127 0" result="hardAlpha"/>
<feMorphology radius="10" operator="erode" in="SourceAlpha" result="effect1_dropShadow_2_235"/>
<feOffset dx="10" dy="10"/>
<feGaussianBlur stdDeviation="12.5"/>
<feColorMatrix type="matrix" values="0 0 0 0 0.212302 0 0 0 0 0.32521 0 0 0 0 0.419299 0 0 0 0.25 0"/>
<feBlend mode="normal" in2="BackgroundImageFix" result="effect1_dropShadow_2_235"/>
<feBlend mode="normal" in="SourceGraphic" in2="effect1_dropShadow_2_235" result="shape"/>
</filter>
<linearGradient id="paint0_linear_2_235" x1="5.78799" y1="0" x2="5.78799" y2="7.14789" gradientUnits="userSpaceOnUse">
<stop stop-color="#454545"/>
<stop offset="0.226279" stop-color="#999999"/>
<stop offset="1" stop-color="white"/>
</linearGradient>
<linearGradient id="paint1_linear_2_235" x1="150.326" y1="49.7335" x2="144.858" y2="49.7335" gradientUnits="userSpaceOnUse">
<stop stop-color="white" stop-opacity="0.01"/>
<stop offset="0.222178" stop-color="#BABABA"/>
<stop offset="0.54678" stop-color="white" stop-opacity="0.01"/>
<stop offset="1" stop-color="white" stop-opacity="0.01"/>
</linearGradient>
<linearGradient id="paint2_linear_2_235" x1="1.48413" y1="49.5823" x2="6.96079" y2="49.5823" gradientUnits="userSpaceOnUse">
<stop stop-color="white" stop-opacity="0.01"/>
<stop offset="0.222178" stop-color="#BABABA"/>
<stop offset="0.54678" stop-color="white" stop-opacity="0.01"/>
<stop offset="1" stop-color="white" stop-opacity="0.01"/>
</linearGradient>
</defs>
</svg>
